Coordinates
version=1
nRows=11
nColumns=40
inDegrees=yes

Units are S.I. units (second, meters, Newtons, ...)
Angles are in degrees.

endheader
time	pelvis_tilt	pelvis_list	pelvis_rotation	pelvis_tx	pelvis_ty	pelvis_tz	hip_flexion_r	hip_adduction_r	hip_rotation_r	knee_angle_r	knee_angle_r_beta	ankle_angle_r	subtalar_angle_r	mtp_angle_r	hip_flexion_l	hip_adduction_l	hip_rotation_l	knee_angle_l	knee_angle_l_beta	ankle_angle_l	subtalar_angle_l	mtp_angle_l	lumbar_extension	lumbar_bending	lumbar_rotation	arm_flex_r	arm_add_r	arm_rot_r	elbow_flex_r	pro_sup_r	wrist_flex_r	wrist_dev_r	arm_flex_l	arm_add_l	arm_rot_l	elbow_flex_l	pro_sup_l	wrist_flex_l	wrist_dev_l
     46.20250000	     -5.49080456	     -5.11858285	     -0.30259348	      1.05804119	      0.92368677	      0.49460144	     21.40148024	      1.86725815	    -18.53230223	     16.11011840	     16.11011840	      3.38032978	      3.37827696	     -5.63141106	     19.88848433	    -11.84411250	     -2.08404895	     55.05373466	     55.05373466	     16.80340943	    -18.94874200	     15.13660610	    -12.83667675	      8.99192688	      2.36059939	      5.21148498	    -18.53558020	      3.10647154	     42.30006211	     45.84962978	      0.00000000	      0.00000000	     -0.15271822	     -9.98310785	    -11.74729184	    101.01930798	     48.14067959	      0.00000000	      0.00000000
     46.21514286	     -5.52691310	     -5.36889657	     -0.44174230	      1.05680272	      0.92465415	      0.49797477	     20.64313162	      2.46535918	    -18.73097652	     15.45715195	     15.45715195	      3.72974102	      4.05654535	     -5.70365429	     21.70937880	    -12.85380756	     -2.67998038	     57.40962400	     57.40962400	     16.37290522	    -19.16665141	     15.78772723	    -12.84419512	      9.26486530	      2.70146068	      6.46219491	    -18.57612968	      2.89827739	     42.97386654	     45.83939978	      0.00000000	      0.00000000	     -0.80153886	     -9.99386642	    -11.47116281	    100.46919528	     48.11810580	      0.00000000	      0.00000000
     46.22778571	     -5.52051321	     -5.45507593	     -0.59804177	      1.05554851	      0.92566269	      0.50102272	     19.86326459	      2.81247490	    -19.18441986	     14.88603890	     14.88603890	      4.05362945	      5.24275429	     -5.98654160	     23.45011233	    -13.56331707	     -3.12909709	     59.41440354	     59.41440354	     17.12752019	    -19.27435043	     18.98794839	    -12.88671939	      9.36453229	      3.22750023	      7.35261897	    -18.62714606	      2.24582519	     44.30557830	     45.81163606	      0.00000000	      0.00000000	     -1.34076384	    -10.00899764	    -11.04810492	     99.69359109	     48.11482996	      0.00000000	      0.00000000
     46.24042857	     -5.51584355	     -5.51224974	     -0.79077809	      1.05419385	      0.92657896	      0.50402807	     19.20116442	      3.17537610	    -19.16033710	     14.49915573	     14.49915573	      4.45053316	      5.70155123	     -6.07544571	     24.98744166	    -14.30334742	     -3.69633165	     60.69831102	     60.69831102	     16.96536206	    -19.35741838	     19.09165449	    -12.93536879	      9.38922855	      3.61945191	      8.58584272	    -18.76773016	      2.03987915	     44.93441365	     45.80401913	      0.00000000	      0.00000000	     -1.99563620	     -9.95786102	    -10.79605870	     99.12999417	     48.08735994	      0.00000000	      0.00000000
     46.25307143	     -5.52941394	     -5.54874496	     -0.88932600	      1.05278771	      0.92745561	      0.50672098	     18.48403208	      3.48162192	    -19.31622982	     13.96800541	     13.96800541	      4.77407340	      6.37779716	     -6.13677575	     26.50559237	    -14.88207515	     -4.02557197	     61.50405620	     61.50405620	     17.02205912	    -19.39121984	     19.44610887	    -12.95308711	      9.44821169	      3.76954407	      9.77068596	    -18.73881027	      1.76742857	     45.84400241	     45.78757196	      0.00000000	      0.00000000	     -2.79336401	    -10.07472879	    -10.54299463	     98.19021615	     48.05446067	      0.00000000	      0.00000000
     46.26571429	     -5.49169577	     -5.45858414	     -0.98452590	      1.05131500	      0.92834787	      0.50915804	     17.80729307	      3.60358171	    -19.45141903	     13.61696930	     13.61696930	      5.13041281	      7.04730408	     -6.22644787	     27.84660243	    -15.21661068	     -4.29440194	     61.77780806	     61.77780806	     17.20196952	    -19.41414686	     19.95821980	    -13.03726059	      9.34668316	      3.95143216	     10.83678948	    -18.71241543	      1.43107451	     46.98123649	     45.76369610	      0.00000000	      0.00000000	     -3.47882217	    -10.16180349	    -10.36587317	     97.06355014	     48.02779824	      0.00000000	      0.00000000
     46.27835714	     -5.45780190	     -5.31974789	     -1.05248094	      1.04975693	      0.92913559	      0.51133774	     17.24520156	      3.63310375	    -19.45966863	     13.46001263	     13.46001263	      5.53417271	      7.44369372	     -6.30277412	     29.08770433	    -15.42404768	     -4.51862655	     61.54922158	     61.54922158	     17.33214789	    -19.40532651	     20.23330527	    -13.12237171	      9.21447969	      4.16334922	     11.82232056	    -18.72614970	      1.13386979	     48.12226152	     45.73744954	      0.00000000	      0.00000000	     -4.12465587	    -10.14546992	    -10.21299220	     95.94078320	     48.00144060	      0.00000000	      0.00000000
     46.29100000	     -5.41253725	     -5.15540115	     -1.07101388	      1.04813746	      0.92981585	      0.51331309	     16.72532836	      3.61046735	    -19.41903547	     13.39877253	     13.39877253	      5.98174601	      7.67273547	     -6.35484093	     30.21680630	    -15.51658122	     -4.65789689	     60.85043492	     60.85043492	     17.37452883	    -19.39177713	     20.36130950	    -13.21304555	      9.04517345	      4.34430031	     12.80620947	    -18.73392396	      0.88473506	     49.36273714	     45.70531840	      0.00000000	      0.00000000	     -4.76414115	    -10.10695421	    -10.10500931	     94.69601028	     47.97531128	      0.00000000	      0.00000000
     46.30364286	     -5.34579521	     -4.98507184	     -1.03378656	      1.04650111	      0.93040067	      0.51504369	     16.23815903	      3.54634519	    -19.34874556	     13.42756454	     13.42756454	      6.43371861	      7.72965355	     -6.39992447	     31.21118057	    -15.53672618	     -4.75671015	     59.71842798	     59.71842798	     17.35725826	    -19.36999002	     20.39677578	    -13.31671778	      8.88759235	      4.46469554	     13.77277596	    -18.68987870	      0.73762493	     50.55104688	     45.67122408	      0.00000000	      0.00000000	     -5.40850926	    -10.04351984	    -10.02382081	     93.45941527	     47.94895091	      0.00000000	      0.00000000
     46.31628571	     -5.29537617	     -4.84662319	     -0.95316239	      1.04480782	      0.93082619	      0.51653505	     15.82028269	      3.48464754	    -19.29231555	     13.54467113	     13.54467113	      6.90386767	      7.69644918	     -6.37132451	     32.13366129	    -15.52104866	     -4.79224478	     58.22207735	     58.22207735	     17.26341965	    -19.34762607	     20.35338760	    -13.41189281	      8.81498964	      4.56642753	     14.63527216	    -18.73086066	      0.68233869	     52.10359908	     45.61850387	      0.00000000	      0.00000000	     -5.92319599	     -9.92189385	    -10.08340861	     91.89586661	     47.92932188	      0.00000000	      0.00000000
     46.32892857	     -5.20492153	     -4.70136570	     -0.84470911	      1.04309046	      0.93119454	      0.51788506	     15.38826281	      3.40241698	    -19.18671630	     13.70824483	     13.70824483	      7.39435422	      7.55530394	     -6.38990738	     32.88865318	    -15.45693163	     -4.84175633	     56.37453654	     56.37453654	     17.08575067	    -19.33449760	     20.38398312	    -13.55183574	      8.70784750	      4.59622328	     15.55653196	    -18.66443516	      0.72905187	     53.45437388	     45.57062808	      0.00000000	      0.00000000	     -6.51071570	     -9.84523438	    -10.07606348	     90.52282208	     47.90560191	      0.00000000	      0.00000000
